<svg xmlns="http://www.w3.org/2000/svg" xmlns:xlink="http://www.w3.org/1999/xlink" id="Layer_1" x="0px" y="0px" viewBox="0 0 842.5 422.3" style="enable-background:new 0 0 842.5 422.3;" xml:space="preserve"><style type="text/css">	.st0{fill:url(#SVGID_1_);}	.st1{fill:url(#SVGID_00000183248354214242958810000005613904467386580871_);}	.st2{fill:url(#SVGID_00000164487598402128333480000012520224522309589917_);}	.st3{fill:#FFB91F;}	.st4{fill:url(#SVGID_00000070092085908298143940000007341312793481452974_);}	.st5{fill:url(#SVGID_00000125565336587102299550000008212787752646817412_);}	.st6{fill:url(#SVGID_00000083063839963458115460000000988925117070463674_);}	.st7{fill:url(#SVGID_00000169520060788448660860000015929702443001638556_);}</style><g>	<g>		<g>			<path d="M262.2,347.3c10.1,0,18.4,3.6,25,10.7c6.6,7.1,9.9,15.9,9.9,26.2c0,10.3-3.3,19.1-9.9,26.2c-6.6,7.1-14.9,10.7-25,10.7    h-27.7v-73.9H262.2z M262.2,415.9c8.6,0,15.6-3,21.1-9.1s8.2-13.6,8.2-22.5s-2.8-16.4-8.2-22.5c-5.5-6.1-12.5-9.1-21.1-9.1H240    v63.3H262.2z"></path>			<path d="M312.2,347.3h5.6v73.9h-5.6V347.3z"></path>			<path d="M407.4,386.7v2.8c0,9.2-3.3,17-9.8,23.3c-6.5,6.3-15.2,9.4-25.8,9.4c-11.3,0-20.5-3.7-27.9-11c-7.3-7.3-11-16.4-11-27.1    c0-10.7,3.6-19.7,10.9-27.1c7.2-7.4,16.4-11,27.5-11c6.8,0,13,1.6,18.6,4.9c5.7,3.2,10,7.6,13.1,13l-5,3    c-2.5-4.6-6.1-8.4-10.9-11.2c-4.8-2.8-10.1-4.2-15.9-4.2c-9.6,0-17.4,3.1-23.6,9.4c-6.2,6.3-9.2,14.1-9.2,23.3s3.1,17,9.3,23.3    c6.2,6.3,14.2,9.4,23.9,9.4c8.7,0,15.6-2.4,21-7.1s8.3-10.7,9-17.8h-31.3v-5.3H407.4z"></path>			<path d="M422.5,347.3h5.6v73.9h-5.6V347.3z"></path>			<path d="M492.9,347.3v5.3h-23.2v68.6H464v-68.6h-23.2v-5.3H492.9z"></path>			<path d="M550,421.1l-7.2-18.8h-37l-7.2,18.8h-5.9l28.7-73.9h5.9l28.6,73.9H550z M507.8,397.1h32.9l-16.5-42.9L507.8,397.1z"></path>			<path d="M573.3,415.9h34.8v5.3h-40.4v-73.9h5.6V415.9z"></path>		</g>		<g>			<g>				<linearGradient id="SVGID_1_" gradientUnits="userSpaceOnUse" x1="456.2441" y1="663.1246" x2="195.1396" y2="375.0092">					<stop offset="0" style="stop-color:#B9002A"></stop>					<stop offset="1" style="stop-color:#E80136"></stop>				</linearGradient>				<polygon class="st0" points="181.4,306.6 140.3,306.6 128.4,280.3 128.3,280.3 113.7,248 90.7,197.6 67.7,248 53,280.3      40.9,306.6 0,306.6 71,154.2 90,113.4 91.2,113.4 110.4,154.6     "></polygon>									<linearGradient id="SVGID_00000033345439049930099750000014257111058678782369_" gradientUnits="userSpaceOnUse" x1="567.6915" y1="562.1254" x2="306.5869" y2="274.0101">					<stop offset="0" style="stop-color:#B9002A"></stop>					<stop offset="1" style="stop-color:#E80136"></stop>				</linearGradient>				<path style="fill:url(#SVGID_00000033345439049930099750000014257111058678782369_);" d="M268.4,194.5     c-21.6-10.2-35.9-14-35.9-25.3c0-9.7,10.5-17.9,24.7-17.9c10.5,0,21.4,4.6,27,15.8l27.9-19.5c-8.5-22.8-29.8-33.4-55.5-33.4     c-34.6,0-62.2,21.5-62.2,54.1c0,30.1,23.3,41.6,44.4,52.1c19.8,9.8,42.3,20.7,42.3,34.5c0,10.1-12,17.3-29.7,17.3     c-16.2,0-28.3-6.1-36.6-19.4l-30.3,21.3c12.6,23.4,35.4,36.3,66.3,36.3c40.3,0,68.4-21.9,68.4-56.3     C319.2,225.1,299.6,209.2,268.4,194.5z"></path>									<linearGradient id="SVGID_00000008146868591391463780000012504693057617523850_" gradientUnits="userSpaceOnUse" x1="644.3322" y1="492.6698" x2="383.2277" y2="204.5545">					<stop offset="0" style="stop-color:#B9002A"></stop>					<stop offset="1" style="stop-color:#E80136"></stop>				</linearGradient>				<path style="fill:url(#SVGID_00000008146868591391463780000012504693057617523850_);" d="M408.3,118.1h-66.2v188.5h37.9v-61.3     h28.3c4.9,0,9.7-0.5,14.2-1.5l51-51c0.7-3.6,1-7.2,1-11C474.6,146.7,444.8,118.1,408.3,118.1z M408.3,207.9l-28.3-0.1v-52.2     h28.3c15.7,0,28.4,11.6,28.4,25.8C436.7,196.1,424,208,408.3,207.9z"></path>				<polygon class="st3" points="495.9,0 495.9,170.5 603.2,63.3 603.2,0     "></polygon>									<linearGradient id="SVGID_00000077304699731786038080000018089368532277071524_" gradientUnits="userSpaceOnUse" x1="697.4366" y1="444.5439" x2="436.3321" y2="156.4286">					<stop offset="0" style="stop-color:#B9002A"></stop>					<stop offset="1" style="stop-color:#E80136"></stop>				</linearGradient>				<polygon style="fill:url(#SVGID_00000077304699731786038080000018089368532277071524_);" points="495.9,217.5 495.9,306.6      533.8,306.6 533.8,179.6     "></polygon>									<linearGradient id="SVGID_00000036209047872713979290000001828693647958477734_" gradientUnits="userSpaceOnUse" x1="766.0812" y1="382.3347" x2="504.9767" y2="94.2194">					<stop offset="0" style="stop-color:#B9002A"></stop>					<stop offset="1" style="stop-color:#E80136"></stop>				</linearGradient>				<path style="fill:url(#SVGID_00000036209047872713979290000001828693647958477734_);" d="M657.3,231.6     c20.2-7.1,34.8-28.3,34.8-52.5c0-33.9-28.9-61.1-64.1-61.1h-32.8l-28.7,28.7l0.1,159.8h37.9v-89.1l60,89.1h46.3L657.3,231.6z      M628.8,203.1l-24.3-0.1v-47.4h24.3c12.7,0,24.3,10.3,24.3,23.7S641.6,203.2,628.8,203.1z"></path>									<linearGradient id="SVGID_00000176003766947764547870000012966651513004616335_" gradientUnits="userSpaceOnUse" x1="861.4259" y1="295.9286" x2="600.3214" y2="7.8133">					<stop offset="0" style="stop-color:#B9002A"></stop>					<stop offset="1" style="stop-color:#E80136"></stop>				</linearGradient>				<path style="fill:url(#SVGID_00000176003766947764547870000012966651513004616335_);" d="M842.5,155.4v-37.3H728.8v188.5h113.7     V269h-75.8V230h65v-37.8h-65v-36.8H842.5z"></path>			</g>							<linearGradient id="SVGID_00000062160443780086934120000001471953203817064870_" gradientUnits="userSpaceOnUse" x1="463.4413" y1="656.6022" x2="202.3367" y2="368.4869">				<stop offset="0" style="stop-color:#B9002A"></stop>				<stop offset="1" style="stop-color:#E80136"></stop>			</linearGradient>							<line style="fill:url(#SVGID_00000062160443780086934120000001471953203817064870_);" x1="140.3" y1="306.6" x2="128.3" y2="280.3"></line>		</g>	</g>	<g>		<path d="M546.8,19.4c1.1,0.6,2,1.4,2.6,2.4c0.6,1,1,2.2,1,3.6c0,2.1-0.7,3.9-2.2,5.3c-1.5,1.4-3.3,2.1-5.5,2.1h-11V7h10.2   c2.1,0,3.9,0.7,5.4,2s2.2,3.1,2.2,5.1C549.4,16.3,548.5,18.1,546.8,19.4z M541.9,10.9h-6v6.8h6c0.9,0,1.7-0.3,2.4-1s1-1.5,1-2.4   s-0.3-1.8-1-2.4C543.6,11.3,542.8,10.9,541.9,10.9z M542.7,28.7c1,0,1.8-0.3,2.5-1c0.7-0.7,1-1.6,1-2.6c0-1-0.3-1.9-1-2.6   c-0.7-0.7-1.5-1-2.5-1h-6.8v7.2H542.7z"></path>		<path d="M557.8,17.4c1-2.3,2.9-3.4,5.7-3.4v4.3c-1.5-0.1-2.8,0.3-4,1.1c-1.1,0.8-1.7,2.2-1.7,4.1v9.3h-4V14.3h4V17.4z"></path>		<path d="M568.7,25.2c0.3,1.4,1,2.5,2,3.2c1.1,0.7,2.3,1.1,3.9,1.1c2.1,0,3.7-0.8,4.7-2.3l3.3,1.9c-1.8,2.7-4.5,4-8.1,4   c-3,0-5.4-0.9-7.2-2.7c-1.8-1.8-2.8-4.1-2.8-6.9c0-2.7,0.9-5,2.7-6.9c1.8-1.9,4.1-2.8,7-2.8c2.7,0,4.9,0.9,6.6,2.8   c1.7,1.9,2.6,4.2,2.6,6.9c0,0.4,0,1-0.1,1.7H568.7z M568.6,22h10.8c-0.3-1.5-0.9-2.6-1.9-3.4c-1-0.8-2.1-1.1-3.4-1.1   c-1.5,0-2.7,0.4-3.7,1.2C569.5,19.5,568.9,20.6,568.6,22z"></path>		<path d="M601.4,14.3h4v18.4h-4v-2.6c-1.5,2.1-3.6,3.1-6.4,3.1c-2.5,0-4.7-0.9-6.5-2.8c-1.8-1.9-2.7-4.2-2.7-6.9   c0-2.7,0.9-5,2.7-6.9c1.8-1.9,3.9-2.8,6.5-2.8c2.8,0,4.9,1,6.4,3.1V14.3z M591.5,27.7c1.1,1.1,2.5,1.7,4.2,1.7   c1.7,0,3.1-0.6,4.2-1.7c1.1-1.1,1.7-2.5,1.7-4.2s-0.6-3.1-1.7-4.2c-1.1-1.1-2.5-1.7-4.2-1.7c-1.7,0-3.1,0.6-4.2,1.7   c-1.1,1.1-1.7,2.5-1.7,4.2S590.3,26.6,591.5,27.7z"></path>		<path d="M620.3,18.1h-4.6V27c0,0.8,0.2,1.3,0.5,1.6c0.3,0.3,0.9,0.5,1.5,0.6c0.7,0,1.5,0,2.5,0v3.6c-3,0.4-5.2,0.1-6.5-0.8   c-1.3-0.9-2-2.5-2-4.9v-8.8h-3.4v-3.8h3.4v-4l4-1.2v5.2h4.6V18.1z"></path>		<path d="M633.6,13.8c2.1,0,3.8,0.7,5.1,2c1.3,1.3,1.9,3.2,1.9,5.6v11.3h-4V21.8c0-1.4-0.4-2.4-1.1-3.2c-0.7-0.7-1.7-1.1-3-1.1   c-1.4,0-2.5,0.4-3.4,1.3c-0.9,0.9-1.3,2.2-1.3,4v9.9h-4V7h4v9.7C629.1,14.8,631,13.8,633.6,13.8z"></path>		<path d="M648,25.2c0.3,1.4,1,2.5,2,3.2c1.1,0.7,2.3,1.1,3.9,1.1c2.1,0,3.7-0.8,4.7-2.3l3.3,1.9c-1.8,2.7-4.5,4-8.1,4   c-3,0-5.4-0.9-7.2-2.7c-1.8-1.8-2.8-4.1-2.8-6.9c0-2.7,0.9-5,2.7-6.9c1.8-1.9,4.1-2.8,7-2.8c2.7,0,4.9,0.9,6.6,2.8   c1.7,1.9,2.6,4.2,2.6,6.9c0,0.4,0,1-0.1,1.7H648z M648,22h10.8c-0.3-1.5-0.9-2.6-1.9-3.4c-1-0.8-2.1-1.1-3.4-1.1   c-1.5,0-2.7,0.4-3.7,1.2C648.9,19.5,648.3,20.6,648,22z"></path>		<path d="M541.8,43.8c3.5,0,6.5,1.2,8.8,3.7c2.3,2.5,3.5,5.5,3.5,9.2c0,3.6-1.2,6.7-3.5,9.1c-2.3,2.5-5.3,3.7-8.8,3.7h-10.1V43.8   H541.8z M541.8,65.5c2.4,0,4.4-0.8,5.9-2.5c1.5-1.7,2.3-3.8,2.3-6.3c0-2.6-0.8-4.7-2.3-6.3c-1.5-1.7-3.5-2.5-5.9-2.5h-5.9v17.7   H541.8z"></path>		<path d="M561.5,47.6c-0.5,0.5-1.1,0.8-1.8,0.8s-1.3-0.3-1.8-0.8c-0.5-0.5-0.8-1.1-0.8-1.8s0.2-1.3,0.7-1.8   c0.5-0.5,1.1-0.8,1.8-0.8c0.7,0,1.3,0.3,1.8,0.8c0.5,0.5,0.7,1.1,0.7,1.8S562,47.1,561.5,47.6z M557.7,69.5V51.1h4v18.4H557.7z"></path>		<path d="M580.9,51.1h3.9v17.5c0,2.8-0.9,4.9-2.8,6.4c-1.8,1.5-4.1,2.2-6.7,2.2c-4.2,0-7.1-1.5-8.7-4.5l3.4-2   c1,1.9,2.7,2.8,5.4,2.8c1.7,0,3.1-0.4,4-1.3c1-0.9,1.5-2.1,1.5-3.7v-2.2c-1.5,2.1-3.6,3.2-6.4,3.2c-2.6,0-4.8-0.9-6.6-2.8   c-1.8-1.9-2.7-4.1-2.7-6.7c0-2.6,0.9-4.9,2.7-6.7c1.8-1.9,4-2.8,6.6-2.8c2.8,0,4.9,1.1,6.4,3.2V51.1z M570.9,64.2   c1.1,1.1,2.5,1.7,4.2,1.7s3.1-0.6,4.2-1.7c1.1-1.1,1.7-2.5,1.7-4.1c0-1.6-0.6-3-1.7-4.1c-1.1-1.1-2.5-1.7-4.2-1.7   s-3.1,0.6-4.2,1.7c-1.1,1.1-1.7,2.5-1.7,4.1C569.2,61.8,569.8,63.1,570.9,64.2z"></path>		<path d="M593.2,47.6c-0.5,0.5-1.1,0.8-1.8,0.8s-1.3-0.3-1.8-0.8c-0.5-0.5-0.8-1.1-0.8-1.8s0.2-1.3,0.7-1.8   c0.5-0.5,1.1-0.8,1.8-0.8c0.7,0,1.3,0.3,1.8,0.8c0.5,0.5,0.7,1.1,0.7,1.8S593.7,47.1,593.2,47.6z M589.4,69.5V51.1h4v18.4H589.4z"></path>		<path d="M608.3,54.9h-4.6v8.8c0,0.8,0.2,1.3,0.5,1.6c0.3,0.3,0.9,0.5,1.5,0.6c0.7,0,1.5,0,2.5,0v3.6c-3,0.4-5.2,0.1-6.5-0.8   s-2-2.5-2-4.9v-8.8h-3.4v-3.8h3.4v-4l4-1.2v5.2h4.6V54.9z"></path>		<path d="M625.7,51.1h4v18.4h-4v-2.6c-1.5,2.1-3.6,3.1-6.4,3.1c-2.5,0-4.7-0.9-6.5-2.8s-2.7-4.2-2.7-6.9c0-2.7,0.9-5,2.7-6.9   c1.8-1.9,3.9-2.8,6.5-2.8c2.8,0,4.9,1,6.4,3.1V51.1z M615.7,64.5c1.1,1.1,2.5,1.7,4.2,1.7c1.7,0,3.1-0.6,4.2-1.7   c1.1-1.1,1.7-2.5,1.7-4.2s-0.6-3.1-1.7-4.2c-1.1-1.1-2.5-1.7-4.2-1.7c-1.7,0-3.1,0.6-4.2,1.7c-1.1,1.1-1.7,2.5-1.7,4.2   S614.6,63.4,615.7,64.5z"></path>		<path d="M634.3,69.5V42.6h4v26.9H634.3z"></path>		<path d="M642.9,69.5V42.6h4v26.9H642.9z"></path>		<path d="M663.8,51.1h4.2l-7.1,19c-1.8,4.8-4.8,7-9,6.8v-3.7c1.3,0.1,2.3-0.2,3-0.8c0.8-0.6,1.4-1.5,1.9-2.8l0.2-0.4l-7.8-18.1h4.3   l5.5,13.4L663.8,51.1z"></path>	</g></g></svg>