<svg xmlns="http://www.w3.org/2000/svg" xmlns:xlink="http://www.w3.org/1999/xlink" id="Layer_1" x="0px" y="0px" viewBox="0 0 300 300" style="enable-background:new 0 0 300 300;" xml:space="preserve"> <style type="text/css"> .st0{fill:#F0141E;} .st1{fill:#182432;} </style> <g> <g> <g> <path class="st0" d="M155.28,199.44c10.19-5.61,26.22-9.01,48.1-10.2v38.56c-14.68,7.98-28.18,11.97-40.46,11.97 c-7.49,0-13.19-1.7-17.08-5.1c-3.9-3.39-5.85-8.35-5.85-14.85C140,211.85,145.09,205.06,155.28,199.44z"></path> <path class="st0" d="M259.17,40.73v68.07c-3.25-9.51-8.48-17.04-15.67-22.61c-13.16-10.2-32.74-15.3-58.73-15.3 c-18.03,0-34.65,2.51-49.87,7.54c-15.22,5.02-30.81,12.71-46.76,23.05l23.14,36.35c23.73-15.07,44.94-22.6,63.63-22.6 c7.41,0,13.2,1.1,17.35,3.32c4.16,2.22,7.04,5.69,8.67,10.42c1.64,4.73,2.46,11.23,2.46,19.5v4.88 c-37.37,1.48-67.62,8.35-90.75,20.61c-23.13,12.27-34.7,30.07-34.7,53.42c0,10.94,2.59,20.61,7.78,29.04 c0.6,0.98,1.24,1.94,1.91,2.87h-46.8V128.98c0.18-48.64,39.56-88.04,88.21-88.25H259.17z"></path> </g> </g> </g> </svg>