<svg xmlns="http://www.w3.org/2000/svg" xmlns:xlink="http://www.w3.org/1999/xlink" id="Layer_1" x="0px" y="0px" viewBox="0 0 844.8 423.5" style="enable-background:new 0 0 844.8 423.5;" xml:space="preserve"><style type="text/css">	.st0{fill:#FFFFFF;}	.st1{fill:url(#SVGID_1_);}	.st2{fill:url(#SVGID_00000106130654441211724590000005953323815342543233_);}	.st3{fill:url(#SVGID_00000124128025513563993790000015730610939588077482_);}	.st4{fill:#FFB91F;}	.st5{fill:url(#SVGID_00000096037089011695919900000007785162886649159601_);}	.st6{fill:url(#SVGID_00000086685159890626300890000013706785336381753004_);}	.st7{fill:url(#SVGID_00000131366044302965978370000004148329048544800926_);}	.st8{fill:url(#SVGID_00000018231281671808581580000013581904825382745745_);}</style><g>	<g>		<g>			<path class="st0" d="M262.9,348.2c10.1,0,18.4,3.6,25,10.7c6.6,7.2,9.9,15.9,9.9,26.3c0,10.4-3.3,19.1-9.9,26.3    c-6.6,7.2-14.9,10.7-25,10.7h-27.8v-74.1H262.9z M262.9,417c8.6,0,15.7-3,21.2-9.1c5.5-6.1,8.3-13.6,8.3-22.6s-2.8-16.5-8.3-22.6    c-5.5-6.1-12.6-9.2-21.2-9.2h-22.2V417H262.9z"></path>			<path class="st0" d="M313,348.2h5.6v74.1H313V348.2z"></path>			<path class="st0" d="M408.6,387.8v2.9c0,9.2-3.3,17-9.8,23.3c-6.6,6.3-15.2,9.5-25.9,9.5c-11.3,0-20.6-3.7-27.9-11.1    c-7.3-7.4-11-16.4-11-27.1c0-10.7,3.6-19.8,10.9-27.1s16.5-11.1,27.6-11.1c6.8,0,13,1.6,18.7,4.9c5.7,3.2,10.1,7.6,13.2,13l-5,3    c-2.5-4.7-6.1-8.4-11-11.2s-10.1-4.2-15.9-4.2c-9.6,0-17.5,3.2-23.6,9.5c-6.2,6.3-9.3,14.1-9.3,23.3s3.1,17,9.3,23.3    c6.2,6.3,14.2,9.5,24,9.5c8.7,0,15.7-2.4,21.1-7.1c5.4-4.7,8.4-10.7,9-17.9h-31.4v-5.3H408.6z"></path>			<path class="st0" d="M423.7,348.2h5.6v74.1h-5.6V348.2z"></path>			<path class="st0" d="M494.2,348.2v5.3H471v68.8h-5.7v-68.8H442v-5.3H494.2z"></path>			<path class="st0" d="M551.5,422.3l-7.2-18.8h-37.1l-7.2,18.8H494l28.8-74.1h5.9l28.7,74.1H551.5z M509.2,398.2h33l-16.5-43    L509.2,398.2z"></path>			<path class="st0" d="M574.9,417h34.9v5.3h-40.5v-74.1h5.6V417z"></path>		</g>		<g>			<g>				<linearGradient id="SVGID_1_" gradientUnits="userSpaceOnUse" x1="457.5002" y1="664.9503" x2="195.6769" y2="376.0417">					<stop offset="0" style="stop-color:#B9002A"></stop>					<stop offset="1" style="stop-color:#E80136"></stop>				</linearGradient>				<polygon class="st1" points="181.9,307.4 140.7,307.4 128.7,281.1 128.7,281.1 114,248.7 91,198.2 67.9,248.7 53.1,281.1      41,307.4 0,307.4 71.2,154.6 90.3,113.7 91.5,113.7 110.7,155     "></polygon>									<linearGradient id="SVGID_00000171000860921835834770000015023692476716903082_" gradientUnits="userSpaceOnUse" x1="569.2544" y1="563.673" x2="307.431" y2="274.7645">					<stop offset="0" style="stop-color:#B9002A"></stop>					<stop offset="1" style="stop-color:#E80136"></stop>				</linearGradient>				<path style="fill:url(#SVGID_00000171000860921835834770000015023692476716903082_);" d="M269.1,195c-21.7-10.2-36-14.1-36-25.3     c0-9.7,10.6-18,24.7-18c10.5,0,21.5,4.6,27.1,15.8l28-19.6c-8.6-22.9-29.9-33.5-55.7-33.5c-34.7,0-62.4,21.6-62.4,54.3     c0,30.1,23.3,41.7,44.6,52.3c19.8,9.9,42.5,20.8,42.5,34.6c0,10.1-12,17.4-29.8,17.4c-16.3,0-28.4-6.1-36.7-19.5L185,274.8     c12.7,23.5,35.5,36.4,66.5,36.4c40.5,0,68.6-21.9,68.6-56.4C320.1,225.7,300.4,209.8,269.1,195z"></path>									<linearGradient id="SVGID_00000127020391888582198920000010700975667093134474_" gradientUnits="userSpaceOnUse" x1="646.1061" y1="494.0262" x2="384.2827" y2="205.1176">					<stop offset="0" style="stop-color:#B9002A"></stop>					<stop offset="1" style="stop-color:#E80136"></stop>				</linearGradient>				<path style="fill:url(#SVGID_00000127020391888582198920000010700975667093134474_);" d="M409.5,118.4h-66.4v189h38V246h28.4     c4.9,0,9.7-0.5,14.3-1.5l51.2-51.2c0.7-3.6,1-7.2,1-11C475.9,147.1,446,118.4,409.5,118.4z M409.5,208.5l-28.4-0.1v-52.3h28.4     c15.7,0,28.5,11.6,28.5,25.9C437.9,196.6,425.2,208.6,409.5,208.5z"></path>				<polygon class="st4" points="497.3,0 497.3,171 604.8,63.5 604.8,0     "></polygon>									<linearGradient id="SVGID_00000072998766083114895340000013833975388853956499_" gradientUnits="userSpaceOnUse" x1="699.3567" y1="445.7678" x2="437.5334" y2="156.8593">					<stop offset="0" style="stop-color:#B9002A"></stop>					<stop offset="1" style="stop-color:#E80136"></stop>				</linearGradient>				<polygon style="fill:url(#SVGID_00000072998766083114895340000013833975388853956499_);" points="497.3,218.1 497.3,307.4      535.3,307.4 535.3,180.1     "></polygon>									<linearGradient id="SVGID_00000004520078449154045490000017675182924207656120_" gradientUnits="userSpaceOnUse" x1="768.1903" y1="383.3874" x2="506.3669" y2="94.4788">					<stop offset="0" style="stop-color:#B9002A"></stop>					<stop offset="1" style="stop-color:#E80136"></stop>				</linearGradient>				<path style="fill:url(#SVGID_00000004520078449154045490000017675182924207656120_);" d="M659.1,232.3     c20.3-7.1,34.9-28.4,34.9-52.6c0-34-29-61.2-64.2-61.2h-32.9l-28.8,28.8l0.1,160.2h38v-89.3l60.1,89.3h46.4L659.1,232.3z      M630.5,203.7l-24.4-0.1v-47.5h24.4c12.8,0,24.4,10.3,24.4,23.8S643.4,203.8,630.5,203.7z"></path>									<linearGradient id="SVGID_00000122692361170963605170000012327903758965197960_" gradientUnits="userSpaceOnUse" x1="863.7975" y1="296.7433" x2="601.9741" y2="7.8348">					<stop offset="0" style="stop-color:#B9002A"></stop>					<stop offset="1" style="stop-color:#E80136"></stop>				</linearGradient>				<path style="fill:url(#SVGID_00000122692361170963605170000012327903758965197960_);" d="M844.8,155.8v-37.4h-114v189h114v-37.7     h-76v-39H834v-37.9h-65.2v-36.9H844.8z"></path>			</g>							<linearGradient id="SVGID_00000067225135992856605430000006440492004921030547_" gradientUnits="userSpaceOnUse" x1="464.7172" y1="658.4099" x2="202.8938" y2="369.5013">				<stop offset="0" style="stop-color:#B9002A"></stop>				<stop offset="1" style="stop-color:#E80136"></stop>			</linearGradient>							<line style="fill:url(#SVGID_00000067225135992856605430000006440492004921030547_);" x1="140.7" y1="307.4" x2="128.7" y2="281.1"></line>		</g>	</g>	<g>		<path class="st0" d="M548.3,19.4c1.1,0.6,2,1.4,2.7,2.4c0.6,1,1,2.2,1,3.6c0,2.1-0.8,3.9-2.2,5.3c-1.5,1.4-3.3,2.1-5.5,2.1h-11.1   V7h10.3c2.1,0,3.9,0.7,5.4,2c1.5,1.4,2.2,3.1,2.2,5.1C551,16.4,550.1,18.1,548.3,19.4z M543.4,11h-6v6.8h6c0.9,0,1.7-0.3,2.4-1   c0.6-0.7,1-1.5,1-2.4s-0.3-1.8-1-2.4C545.1,11.3,544.3,11,543.4,11z M544.2,28.8c1,0,1.8-0.4,2.5-1.1c0.7-0.7,1-1.6,1-2.6   c0-1-0.3-1.9-1-2.6c-0.7-0.7-1.5-1.1-2.5-1.1h-6.8v7.2H544.2z"></path>		<path class="st0" d="M559.4,17.5c1-2.3,2.9-3.4,5.7-3.4v4.3c-1.5-0.1-2.9,0.3-4,1.1c-1.1,0.8-1.7,2.2-1.7,4.1v9.3h-4V14.4h4V17.5z   "></path>		<path class="st0" d="M570.3,25.3c0.3,1.4,1,2.5,2,3.2c1.1,0.8,2.3,1.1,3.9,1.1c2.1,0,3.7-0.8,4.8-2.3l3.3,1.9   c-1.8,2.7-4.5,4-8.1,4c-3,0-5.4-0.9-7.3-2.7s-2.8-4.1-2.8-7c0-2.8,0.9-5.1,2.7-6.9c1.8-1.9,4.2-2.8,7-2.8c2.7,0,4.9,0.9,6.7,2.8   c1.7,1.9,2.6,4.2,2.6,6.9c0,0.4,0,1-0.1,1.7H570.3z M570.3,22h10.8c-0.3-1.5-0.9-2.6-1.9-3.4c-1-0.8-2.1-1.1-3.4-1.1   c-1.5,0-2.7,0.4-3.7,1.2S570.5,20.6,570.3,22z"></path>		<path class="st0" d="M603.1,14.4h4v18.4h-4v-2.7c-1.5,2.1-3.7,3.1-6.5,3.1c-2.5,0-4.7-0.9-6.5-2.8c-1.8-1.9-2.7-4.2-2.7-6.9   c0-2.7,0.9-5,2.7-6.9c1.8-1.9,4-2.8,6.5-2.8c2.8,0,5,1,6.5,3.1V14.4z M593.1,27.8c1.1,1.1,2.5,1.7,4.2,1.7c1.7,0,3.1-0.6,4.2-1.7   c1.1-1.1,1.7-2.5,1.7-4.2s-0.6-3.1-1.7-4.2c-1.1-1.1-2.5-1.7-4.2-1.7c-1.7,0-3.1,0.6-4.2,1.7c-1.1,1.1-1.7,2.5-1.7,4.2   S592,26.7,593.1,27.8z"></path>		<path class="st0" d="M622,18.2h-4.6v8.9c0,0.8,0.2,1.3,0.5,1.6c0.3,0.3,0.9,0.5,1.5,0.6c0.7,0,1.5,0,2.5,0v3.6   c-3,0.4-5.2,0.1-6.6-0.8s-2-2.6-2-5v-8.9h-3.4v-3.8h3.4v-4l4-1.2v5.2h4.6V18.2z"></path>		<path class="st0" d="M635.4,13.9c2.1,0,3.8,0.7,5.1,2c1.3,1.4,2,3.2,2,5.6v11.3h-4V21.9c0-1.4-0.4-2.4-1.1-3.2   c-0.7-0.7-1.7-1.1-3-1.1c-1.4,0-2.5,0.4-3.4,1.3c-0.9,0.9-1.3,2.2-1.3,4v9.9h-4V7h4v9.7C630.8,14.8,632.8,13.9,635.4,13.9z"></path>		<path class="st0" d="M649.9,25.3c0.3,1.4,1,2.5,2,3.2c1.1,0.8,2.3,1.1,3.9,1.1c2.1,0,3.7-0.8,4.8-2.3l3.3,1.9   c-1.8,2.7-4.5,4-8.1,4c-3,0-5.4-0.9-7.3-2.7s-2.8-4.1-2.8-7c0-2.8,0.9-5.1,2.7-6.9c1.8-1.9,4.2-2.8,7-2.8c2.7,0,4.9,0.9,6.7,2.8   c1.7,1.9,2.6,4.2,2.6,6.9c0,0.4,0,1-0.1,1.7H649.9z M649.8,22h10.8c-0.3-1.5-0.9-2.6-1.9-3.4c-1-0.8-2.1-1.1-3.4-1.1   c-1.5,0-2.7,0.4-3.7,1.2S650.1,20.6,649.8,22z"></path>		<path class="st0" d="M543.3,43.9c3.5,0,6.5,1.2,8.8,3.7c2.3,2.5,3.5,5.5,3.5,9.2c0,3.6-1.2,6.7-3.5,9.2c-2.3,2.5-5.3,3.7-8.8,3.7   h-10.1V43.9H543.3z M543.3,65.6c2.4,0,4.4-0.8,6-2.5c1.5-1.7,2.3-3.8,2.3-6.3c0-2.6-0.8-4.7-2.3-6.4c-1.5-1.7-3.5-2.5-6-2.5h-5.9   v17.7H543.3z"></path>		<path class="st0" d="M563,47.7c-0.5,0.5-1.1,0.8-1.8,0.8c-0.7,0-1.3-0.3-1.8-0.8c-0.5-0.5-0.8-1.1-0.8-1.8c0-0.7,0.2-1.3,0.7-1.8   c0.5-0.5,1.1-0.8,1.8-0.8c0.7,0,1.3,0.3,1.8,0.8c0.5,0.5,0.7,1.1,0.7,1.8C563.8,46.6,563.5,47.2,563,47.7z M559.3,69.7V51.2h4   v18.4H559.3z"></path>		<path class="st0" d="M582.5,51.2h3.9v17.6c0,2.8-0.9,5-2.8,6.5s-4.1,2.3-6.7,2.3c-4.3,0-7.2-1.5-8.7-4.5l3.4-2   c1,1.9,2.8,2.8,5.4,2.8c1.7,0,3.1-0.4,4-1.3c1-0.9,1.5-2.1,1.5-3.7v-2.2c-1.5,2.1-3.6,3.2-6.4,3.2c-2.6,0-4.8-0.9-6.6-2.8   c-1.8-1.9-2.7-4.1-2.7-6.7c0-2.6,0.9-4.9,2.7-6.7c1.8-1.9,4-2.8,6.6-2.8c2.8,0,4.9,1.1,6.4,3.2V51.2z M572.5,64.4   c1.1,1.1,2.5,1.7,4.2,1.7c1.7,0,3.1-0.6,4.2-1.7c1.1-1.1,1.7-2.5,1.7-4.1c0-1.6-0.6-3-1.7-4.1c-1.1-1.1-2.5-1.7-4.2-1.7   c-1.7,0-3.1,0.6-4.2,1.7c-1.1,1.1-1.7,2.5-1.7,4.1C570.8,61.9,571.4,63.3,572.5,64.4z"></path>		<path class="st0" d="M594.9,47.7c-0.5,0.5-1.1,0.8-1.8,0.8c-0.7,0-1.3-0.3-1.8-0.8c-0.5-0.5-0.8-1.1-0.8-1.8   c0-0.7,0.2-1.3,0.7-1.8c0.5-0.5,1.1-0.8,1.8-0.8c0.7,0,1.3,0.3,1.8,0.8c0.5,0.5,0.7,1.1,0.7,1.8C595.6,46.6,595.4,47.2,594.9,47.7   z M591.1,69.7V51.2h4v18.4H591.1z"></path>		<path class="st0" d="M610,55.1h-4.6v8.9c0,0.8,0.2,1.3,0.5,1.6c0.3,0.3,0.9,0.5,1.5,0.6c0.7,0,1.5,0,2.5,0v3.6   c-3,0.4-5.2,0.1-6.6-0.8s-2-2.6-2-5v-8.9H598v-3.8h3.4v-4l4-1.2v5.2h4.6V55.1z"></path>		<path class="st0" d="M627.5,51.2h4v18.4h-4V67c-1.5,2.1-3.7,3.1-6.5,3.1c-2.5,0-4.7-0.9-6.5-2.8c-1.8-1.9-2.7-4.2-2.7-6.9   c0-2.7,0.9-5,2.7-6.9c1.8-1.9,4-2.8,6.5-2.8c2.8,0,5,1,6.5,3.1V51.2z M617.5,64.7c1.1,1.1,2.5,1.7,4.2,1.7c1.7,0,3.1-0.6,4.2-1.7   c1.1-1.1,1.7-2.5,1.7-4.2s-0.6-3.1-1.7-4.2c-1.1-1.1-2.5-1.7-4.2-1.7c-1.7,0-3.1,0.6-4.2,1.7c-1.1,1.1-1.7,2.5-1.7,4.2   S616.4,63.6,617.5,64.7z"></path>		<path class="st0" d="M636.1,69.7V42.8h4v26.9H636.1z"></path>		<path class="st0" d="M644.7,69.7V42.8h4v26.9H644.7z"></path>		<path class="st0" d="M665.7,51.2h4.2l-7.1,19c-1.8,4.8-4.8,7-9,6.8v-3.7c1.3,0.1,2.3-0.2,3-0.8c0.8-0.6,1.4-1.5,1.9-2.8l0.2-0.4   l-7.8-18.1h4.4l5.5,13.4L665.7,51.2z"></path>	</g></g></svg>